# xmcd
#
# Track frame offsets: 
#        150
#        21316
#        37267
#        63773
#        99896
#        113865
#        128842
#        154775
#
# Disc length: 2359 seconds
#
# Revision: 0
# Processed by: cddbd v1.5.2PL0 Copyright (c) Steve Scherf et al.
# Submitted via: ExactAudioCopy v1.0b2
#
DISCID=62093508
DTITLE=Erwan Keravec - Urban Pipes
DYEAR=2007
DGENRE=Country
TTITLE0=Mina
TTITLE1=Faire avec
TTITLE2=Urban Pipes Part. I
TTITLE3=Dansed Breman
TTITLE4=Faux Bourdon
TTITLE5=Saint Nicolas
TTITLE6=Urban Pipes Part. II
TTITLE7=Lament for Rufus
EXTD=
EXTT0=
EXTT1=
EXTT2=
EXTT3=
EXTT4=
EXTT5=
EXTT6=
EXTT7=
PLAYORDER=
